<?xml version="1.0" encoding="utf-8"?>
<!-- Generator: Adobe Illustrator 27.2.0, SVG Export Plug-In . SVG Version: 6.00 Build 0)  -->
<svg version="1.1" id="Ñëîé_1" xmlns="http://www.w3.org/2000/svg" xmlns:xlink="http://www.w3.org/1999/xlink" x="0px" y="0px"
	 viewBox="0 0 1979.64 2774.71" style="enable-background:new 0 0 1979.64 2774.71;" xml:space="preserve">
<style type="text/css">
	.st0{fill:#FFFFFF;}
</style>
<g>
	<path class="st0" d="M739.58,2017.78c-220.63,0-400.13-179.45-400.13-400.1c0-220.65,179.5-400.11,400.13-400.11
		s400.1,179.45,400.1,400.11C1139.68,1838.32,960.2,2017.78,739.58,2017.78z M739.58,1267.72c-192.96,0-349.93,157.02-349.93,349.95
		c0,192.93,156.97,349.95,349.93,349.95c192.93,0,349.9-157.02,349.9-349.95C1089.48,1424.74,932.51,1267.72,739.58,1267.72z"/>
	<path class="st0" d="M702.65,1642.75c-53.71,0-97.43-43.69-97.43-97.46c0-53.71,43.72-97.41,97.43-97.41
		c13.86,0,25.1,11.19,25.1,25.08c0,13.89-11.24,25.08-25.1,25.08c-26.04,0-47.23,21.21-47.23,47.25c0,26.09,21.19,47.3,47.23,47.3
		c13.86,0,25.1,11.19,25.1,25.08S716.51,1642.75,702.65,1642.75z"/>
	<path class="st0" d="M776.48,1787.41c-13.86,0-25.1-11.19-25.1-25.08c0-13.89,11.24-25.08,25.1-25.08
		c26.07,0,47.25-21.21,47.25-47.25s-21.19-47.25-47.25-47.25c-13.86,0-25.1-11.19-25.1-25.08s11.24-25.08,25.1-25.08
		c53.74,0,97.46,43.69,97.46,97.41C873.94,1743.72,830.22,1787.41,776.48,1787.41z"/>
	<path class="st0" d="M776.48,1642.75h-73.83c-13.86,0-25.1-11.19-25.1-25.08s11.24-25.08,25.1-25.08h73.83
		c13.86,0,25.1,11.19,25.1,25.08S790.34,1642.75,776.48,1642.75z"/>
	<path class="st0" d="M776.48,1787.41H630.32c-13.86,0-25.1-11.19-25.1-25.08c0-13.89,11.24-25.08,25.1-25.08h146.16
		c13.86,0,25.1,11.19,25.1,25.08C801.58,1776.22,790.34,1787.41,776.48,1787.41z"/>
	<path class="st0" d="M848.83,1498.04H702.65c-13.86,0-25.1-11.19-25.1-25.08c0-13.89,11.24-25.08,25.1-25.08h146.19
		c13.86,0,25.1,11.19,25.1,25.08C873.94,1486.85,862.69,1498.04,848.83,1498.04z"/>
	<path class="st0" d="M739.58,1498.04c-13.86,0-25.1-11.19-25.1-25.08v-59.05c0-13.89,11.24-25.08,25.1-25.08
		c13.86,0,25.1,11.19,25.1,25.08v59.05C764.68,1486.85,753.44,1498.04,739.58,1498.04z"/>
	<path class="st0" d="M739.58,1847.94c-13.86,0-25.1-11.19-25.1-25.08v-60.53c0-13.89,11.24-25.08,25.1-25.08
		c13.86,0,25.1,11.19,25.1,25.08v60.53C764.68,1836.75,753.44,1847.94,739.58,1847.94z"/>
	<path class="st0" d="M1231.24,1066.9c-197.56,0-407.51-54.32-407.51-154.99c0-101.78,205.01-154.99,407.51-154.99
		c203.23,0,408.96,53.2,408.96,154.99C1640.19,1012.58,1429.48,1066.9,1231.24,1066.9z M1231.24,807.09
		c-221.36,0-357.3,61.09-357.3,104.83c0,42.73,139.19,104.83,357.3,104.83c219,0,358.75-62.11,358.75-104.83
		C1589.99,869.19,1450.24,807.09,1231.24,807.09z"/>
	<path class="st0" d="M1231.24,1844.99h-42.83c-13.86,0-25.1-11.19-25.1-25.08s11.24-25.08,25.1-25.08h42.83
		c219,0,358.75-62.11,358.75-104.83c0-13.89,11.24-25.08,25.1-25.08s25.1,11.19,25.1,25.08
		C1640.19,1791.78,1434.47,1844.99,1231.24,1844.99z"/>
	<path class="st0" d="M848.83,1162.89c-13.86,0-25.1-11.19-25.1-25.08V911.92c0-13.89,11.24-25.08,25.1-25.08
		c13.86,0,25.1,11.19,25.1,25.08v225.89C873.94,1151.7,862.69,1162.89,848.83,1162.89z"/>
	<path class="st0" d="M1615.09,1715.08c-13.86,0-25.1-11.19-25.1-25.08V911.92c0-13.89,11.24-25.08,25.1-25.08
		s25.1,11.19,25.1,25.08V1690C1640.19,1703.89,1628.95,1715.08,1615.09,1715.08z"/>
	<path class="st0" d="M1231.24,1459.63c-6.43,0-12.87-0.36-19.3-0.76c-5.37-0.36-10.76-0.71-16.15-0.71
		c-13.86,0-25.1-11.19-25.1-25.08s11.24-25.08,25.1-25.08c6.43,0,12.87,0.36,19.28,0.76c5.39,0.36,10.78,0.71,16.18,0.71
		c219,0,358.75-62.11,358.75-104.83c0-13.89,11.24-25.08,25.1-25.08s25.1,11.19,25.1,25.08
		C1640.19,1405.31,1429.48,1459.63,1231.24,1459.63z"/>
	<path class="st0" d="M1231.24,1653.07c-13.86,0-25.1-11.19-25.1-25.08s11.24-25.08,25.1-25.08c219,0,358.75-62.11,358.75-104.83
		c0-13.89,11.24-25.08,25.1-25.08s25.1,11.19,25.1,25.08C1640.19,1598.75,1429.48,1653.07,1231.24,1653.07z"/>
	<path class="st0" d="M1231.24,1264.77c-80.04,0-149.49-6.66-206.49-19.84c-13.5-3.15-21.9-16.63-18.77-30.11
		c3.1-13.53,16.63-21.72,30.11-18.82c53.26,12.36,118.92,18.62,195.14,18.62c219,0,358.75-62.11,358.75-104.83
		c0-13.89,11.24-25.08,25.1-25.08s25.1,11.19,25.1,25.08C1640.19,1211.57,1434.47,1264.77,1231.24,1264.77z M859.18,1165.84
		c-7.83,0-15.54-3.61-20.45-10.48c-9.94-13.94-15-29.3-15-45.58c0-13.89,11.24-25.08,25.1-25.08c13.86,0,25.1,11.19,25.1,25.08
		c0,5.8,1.81,10.99,5.65,16.38c8.06,11.29,5.44,26.96-5.82,35.05C869.33,1164.36,864.22,1165.84,859.18,1165.84z"/>
	<path class="st0" d="M1515.67,2765.02H463.97c-61.09,0-120.37-11.97-176.18-35.58c-53.9-22.8-102.3-55.43-143.86-96.99
		c-41.56-41.56-74.19-89.96-96.99-143.86c-23.61-55.81-35.58-115.09-35.58-176.18V462.3c0-61.09,11.97-120.37,35.58-176.18
		c22.8-53.9,55.43-102.3,96.99-143.86s89.96-74.19,143.86-96.99C343.6,21.66,402.87,9.69,463.97,9.69h1051.71
		c61.09,0,120.37,11.97,176.18,35.58c53.9,22.8,102.3,55.43,143.86,96.99c41.56,41.56,74.19,89.96,96.99,143.86
		c23.61,55.81,35.58,115.09,35.58,176.18v1850.12c0,61.09-11.97,120.37-35.58,176.18c-22.8,53.9-55.43,102.3-96.99,143.86
		c-41.56,41.56-89.96,74.19-143.86,96.99C1636.04,2753.05,1576.77,2765.02,1515.67,2765.02z M463.97,49.69
		c-227.51,0-412.61,185.09-412.61,412.6v1850.12c0,227.51,185.09,412.6,412.61,412.6h1051.71c227.51,0,412.6-185.09,412.6-412.6
		V462.3c0-227.51-185.09-412.6-412.6-412.6H463.97z"/>
</g>
</svg>
