<?xml version="1.0" encoding="utf-8"?>
<!-- Generator: Adobe Illustrator 27.2.0, SVG Export Plug-In . SVG Version: 6.00 Build 0)  -->
<svg version="1.1" id="Ñëîé_1" xmlns="http://www.w3.org/2000/svg" xmlns:xlink="http://www.w3.org/1999/xlink" x="0px" y="0px"
	 viewBox="0 0 1979.64 2774.71" style="enable-background:new 0 0 1979.64 2774.71;" xml:space="preserve">
<style type="text/css">
	.st0{fill:#FFFFFF;}
</style>
<g>
	<g>
		<g>
			<path class="st0" d="M1136.1,1594.71c-8.96,0-16.23-7.27-16.23-16.23v-383.53c0-8.96,7.26-16.23,16.23-16.23h66.09L1018.22,979.4
				l-184.01,199.32h66.09c8.96,0,16.23,7.26,16.23,16.23v383.53c0,8.96-7.26,16.23-16.23,16.23c-8.96,0-16.23-7.27-16.23-16.23
				v-367.3h-86.93c-6.44,0-12.28-3.81-14.87-9.72c-2.59-5.91-1.43-12.78,2.94-17.52l221.07-239.47c3.07-3.33,7.4-5.22,11.92-5.22
				l0,0c4.53,0,8.85,1.89,11.92,5.22l221.04,239.47c4.37,4.74,5.53,11.61,2.94,17.52c-2.58,5.91-8.42,9.72-14.86,9.72h-86.93v367.3
				C1152.33,1587.44,1145.06,1594.71,1136.1,1594.71z"/>
		</g>
		<g>
			<g>
				<path class="st0" d="M1221.96,1447.97c-8.96,0-16.23-7.26-16.23-16.23v-156.28c0-8.96,7.26-16.23,16.23-16.23
					s16.23,7.26,16.23,16.23v156.28C1238.19,1440.71,1230.92,1447.97,1221.96,1447.97z"/>
			</g>
			<g>
				<path class="st0" d="M1445.9,1337.07c-8.96,0-16.23-7.26-16.23-16.23V969.69c0-8.96,7.26-16.23,16.23-16.23h60.91
					l-172.87-187.28l-172.89,187.28h60.91c8.96,0,16.23,7.26,16.23,16.23v106.71c0,8.96-7.26,16.23-16.23,16.23
					s-16.23-7.26-16.23-16.23v-90.48h-81.75c-6.44,0-12.28-3.81-14.87-9.72c-2.59-5.91-1.43-12.78,2.94-17.52l209.96-227.43
					c3.07-3.33,7.4-5.22,11.92-5.22l0,0c4.53,0,8.85,1.89,11.92,5.22l209.93,227.43c4.37,4.74,5.53,11.61,2.94,17.52
					s-8.42,9.72-14.87,9.72h-81.75v334.93C1462.12,1329.81,1454.86,1337.07,1445.9,1337.07z"/>
			</g>
		</g>
		<g>
			<g>
				<path class="st0" d="M798.78,1447.97c-8.96,0-16.23-7.26-16.23-16.23v-156.28c0-8.96,7.26-16.23,16.23-16.23
					c8.96,0,16.23,7.26,16.23,16.23v156.28C815.01,1440.71,807.75,1447.97,798.78,1447.97z"/>
			</g>
			<g>
				<path class="st0" d="M574.84,1337.07c-8.96,0-16.23-7.26-16.23-16.23V985.91h-81.74c-6.44,0-12.28-3.81-14.87-9.72
					s-1.43-12.78,2.94-17.52l209.93-227.43c6.14-6.66,17.71-6.66,23.85,0l209.95,227.43c4.37,4.74,5.53,11.61,2.94,17.52
					c-2.58,5.91-8.42,9.72-14.86,9.72h-81.74v90.48c0,8.96-7.26,16.23-16.23,16.23c-8.96,0-16.23-7.26-16.23-16.23V969.69
					c0-8.96,7.26-16.23,16.23-16.23h60.9L686.8,766.18L513.93,953.46h60.91c8.96,0,16.23,7.26,16.23,16.23v351.16
					C591.07,1329.81,583.8,1337.07,574.84,1337.07z"/>
			</g>
		</g>
	</g>
	<g>
		<g>
			<g>
				<g>
					<g>
						<path class="st0" d="M1010.11,2052.14c-68.89,0-125.2-33.25-130.98-77.34c-1.16-8.9,5.1-17.04,13.98-18.2
							c8.84-1.17,17.03,5.09,18.2,13.98c3.1,23.62,41.75,49.11,98.8,49.11c45.75,0,99.18-13.72,99.18-52.41
							c0-43.11-54.32-52.16-99.89-52.16c-82.27,0-123.98-28.96-123.98-86.08c0-48.17,49.33-80.53,122.76-80.53
							c67.13,0,117.59,29.56,122.72,71.87c1.08,8.9-5.26,16.99-14.16,18.07c-8.98,0.98-16.98-5.26-18.07-14.16
							c-2.99-24.7-41.9-43.33-90.5-43.33c-53.17,0-90.3,19.77-90.3,48.07c0,17.41,0,53.63,91.53,53.63
							c119.45,0,132.34,59.17,132.34,84.62C1141.74,2018.83,1090.08,2052.14,1010.11,2052.14z"/>
					</g>
					<g>
						<path class="st0" d="M1009.05,1777.35c-8.96,0-16.23-7.27-16.23-16.23v-47.65c0-8.96,7.26-16.23,16.23-16.23
							c8.96,0,16.23,7.27,16.23,16.23v47.65C1025.28,1770.08,1018.01,1777.35,1009.05,1777.35z"/>
					</g>
					<g>
						<path class="st0" d="M1009.1,2105.2c-8.96,0-16.23-7.27-16.23-16.23v-48.5c0-8.96,7.26-16.23,16.23-16.23
							c8.96,0,16.23,7.27,16.23,16.23v48.5C1025.33,2097.93,1018.06,2105.2,1009.1,2105.2z"/>
					</g>
				</g>
			</g>
		</g>
		<g>
			<path class="st0" d="M1010.37,2180.78c-154.15,0-279.56-125.41-279.56-279.56s125.41-279.56,279.56-279.56
				s279.56,125.41,279.56,279.56S1164.52,2180.78,1010.37,2180.78z M1010.37,1654.12c-136.25,0-247.11,110.85-247.11,247.11
				s110.85,247.11,247.11,247.11c136.25,0,247.11-110.85,247.11-247.11S1146.62,1654.12,1010.37,1654.12z"/>
		</g>
	</g>
	<g>
		<g>
			<g>
				<g>
					<g>
						<g>
							<path class="st0" d="M577.94,1716.06c-53.29,0-96.92-26.28-101.48-61.11c-1.16-8.9,5.1-17.04,13.98-18.2
								c8.84-1.19,17.03,5.09,18.2,13.98c2.08,15.88,30.42,32.88,69.3,32.88c32.09,0,69.55-9.11,69.55-34.79
								c0-28.6-38.11-34.6-70.08-34.6c-63.91,0-96.32-22.93-96.32-68.14c0-38.29,38.35-64.02,95.41-64.02
								c52.06,0,91.27,23.48,95.35,57.09c1.08,8.9-5.26,16.99-14.16,18.07c-8.91,1.02-16.98-5.26-18.07-14.16
								c-1.7-14.03-25.78-28.54-63.13-28.54c-36.48,0-62.96,13.28-62.96,31.56c0,11.58,0,35.69,63.86,35.69
								c92.54,0,102.53,46.9,102.53,67.06C679.95,1689.67,639.9,1716.06,577.94,1716.06z"/>
						</g>
						<g>
							<path class="st0" d="M577.15,1511.82c-8.96,0-16.23-7.26-16.23-16.23v-35.41c0-8.96,7.26-16.23,16.23-16.23
								c8.96,0,16.23,7.26,16.23,16.23v35.41C593.38,1504.55,586.12,1511.82,577.15,1511.82z"/>
						</g>
						<g>
							<path class="st0" d="M577.19,1755.49c-8.96,0-16.23-7.27-16.23-16.23v-36.05c0-8.96,7.26-16.23,16.23-16.23
								c8.96,0,16.23,7.27,16.23,16.23v36.05C593.42,1748.22,586.15,1755.49,577.19,1755.49z"/>
						</g>
					</g>
				</g>
			</g>
			<g>
				<path class="st0" d="M578.13,1811.66c-116.87,0-211.95-95.07-211.95-211.95s95.08-211.95,211.95-211.95
					c116.87,0,211.95,95.08,211.95,211.95S695,1811.66,578.13,1811.66z M578.13,1420.22c-98.97,0-179.49,80.52-179.49,179.49
					s80.52,179.49,179.49,179.49s179.5-80.52,179.5-179.49S677.1,1420.22,578.13,1420.22z"/>
			</g>
		</g>
		<g>
			<g>
				<g>
					<g>
						<g>
							<path class="st0" d="M1442.42,1716.06c-53.28,0-96.91-26.28-101.49-61.11c-1.17-8.89,5.09-17.04,13.98-18.2
								c8.91-1.19,17.04,5.09,18.2,13.98c2.08,15.88,30.43,32.88,69.31,32.88c32.08,0,69.54-9.11,69.54-34.79
								c0-28.6-38.11-34.6-70.08-34.6c-63.91,0-96.31-22.93-96.31-68.14c0-38.29,38.34-64.02,95.41-64.02
								c52.07,0,91.28,23.48,95.35,57.09c1.08,8.91-5.27,16.99-14.16,18.07c-8.89,1.04-16.98-5.26-18.06-14.16
								c-1.7-14.03-25.77-28.54-63.13-28.54c-36.48,0-62.95,13.28-62.95,31.56c0,11.58,0,35.69,63.86,35.69
								c92.54,0,102.53,46.9,102.53,67.06C1544.42,1689.67,1504.38,1716.06,1442.42,1716.06z"/>
						</g>
						<g>
							<path class="st0" d="M1441.62,1511.82c-8.96,0-16.23-7.26-16.23-16.23v-35.41c0-8.96,7.26-16.23,16.23-16.23
								c8.96,0,16.23,7.26,16.23,16.23v35.41C1457.85,1504.55,1450.59,1511.82,1441.62,1511.82z"/>
						</g>
						<g>
							<path class="st0" d="M1441.66,1755.49c-8.96,0-16.23-7.27-16.23-16.23v-36.05c0-8.96,7.26-16.23,16.23-16.23
								c8.96,0,16.23,7.27,16.23,16.23v36.05C1457.89,1748.22,1450.62,1755.49,1441.66,1755.49z"/>
						</g>
					</g>
				</g>
			</g>
			<g>
				<path class="st0" d="M1442.61,1811.66c-116.87,0-211.95-95.07-211.95-211.95s95.08-211.95,211.95-211.95
					c116.87,0,211.95,95.08,211.95,211.95S1559.48,1811.66,1442.61,1811.66z M1442.61,1420.22c-98.97,0-179.49,80.52-179.49,179.49
					s80.52,179.49,179.49,179.49c98.97,0,179.5-80.52,179.5-179.49S1541.58,1420.22,1442.61,1420.22z"/>
			</g>
		</g>
	</g>
	<path class="st0" d="M1518.67,2765.43H466.96c-61.09,0-120.37-11.97-176.18-35.58c-53.9-22.8-102.3-55.43-143.86-96.99
		c-41.56-41.56-74.19-89.96-96.99-143.86c-23.61-55.81-35.58-115.09-35.58-176.18V462.71c0-61.09,11.97-120.37,35.58-176.18
		c22.8-53.9,55.43-102.3,96.99-143.86c41.56-41.56,89.96-74.19,143.86-96.99C346.6,22.07,405.87,10.1,466.96,10.1h1051.71
		c61.09,0,120.37,11.97,176.18,35.58c53.9,22.8,102.3,55.43,143.86,96.99c41.56,41.56,74.19,89.96,96.99,143.86
		c23.61,55.81,35.58,115.09,35.58,176.18v1850.12c0,61.09-11.97,120.37-35.58,176.18c-22.8,53.9-55.43,102.3-96.99,143.86
		c-41.56,41.56-89.96,74.19-143.86,96.99C1639.04,2753.46,1579.77,2765.43,1518.67,2765.43z M466.96,50.1
		c-227.51,0-412.6,185.09-412.6,412.6v1850.12c0,227.51,185.09,412.6,412.6,412.6h1051.71c227.51,0,412.6-185.09,412.6-412.6V462.71
		c0-227.51-185.09-412.6-412.6-412.6H466.96z"/>
</g>
</svg>
