<?xml version="1.0" encoding="utf-8"?>
<!-- Generator: Adobe Illustrator 27.2.0, SVG Export Plug-In . SVG Version: 6.00 Build 0)  -->
<svg version="1.1" id="Ñëîé_1" xmlns="http://www.w3.org/2000/svg" xmlns:xlink="http://www.w3.org/1999/xlink" x="0px" y="0px"
	 viewBox="0 0 1958.17 2774.71" style="enable-background:new 0 0 1958.17 2774.71;" xml:space="preserve">
<style type="text/css">
	.st0{fill:#283053;}
	.st1{fill:none;stroke:#282F51;stroke-width:40;stroke-miterlimit:10;}
</style>
<g>
	<g>
		<path class="st0" d="M876.16,1948.69c-0.52-95.58,0.61-192.32-0.43-287.5c-0.04-3.97,2.06-7.66,5.51-9.63
			c21.88-12.52,32.49-21.25,56.76-40.68c47.35-37.9,107.39-135.88,127.65-189.93c11.79-31.46,9.62-34.12,14.83-58.5
			c2.72-12.72,2.35-15.1,4.61-23.37c1.28-4.68,1.6-5.67,2.04-6.57c1.36-2.77,3.77-4.89,6.7-5.89c9.06-3.09,17.21-8.34,28.47-2.09
			c9.36,5.19,14.46,4.67,20.46,21.63c10.24,28.95,10.79,55.59,11.06,95.92c0.21,32.03-6.37,87.22-24.52,122.05
			c-3.95,7.59,0.02,15.68,7.33,19.29c4.45,2.19,9.54,2.72,14.5,2.68c9.22-0.08,18.37-1.14,27.58-1.18
			c13.93-0.06,27.88,0.01,41.8,0.64c0.82,0.04,3.12-0.16,3.29-0.18c-0.14-0.06,2.87,0.47,3.33,0.46
			c24.51-0.35,63.42,3.09,83.74,6.98c21.76,4.16,26.12,17.26,30.82,27.2c9.78,20.72,5.56,37.58-3.78,54.59
			c-1.95,3.55-6.51,6.72-8.33,10.6c2.97,2.82,7.14,6.13,10.14,8.92c13.46,12.51,17.37,32,15.54,49.74
			c-1.8,17.51-9.66,35.04-25.42,44.47c-3.49,2.09-8.57,4.84-12.14,7.06c1.55,3.57,5.06,9.13,6.51,12.26
			c7.97,17.1,11.57,33.92,3.78,52.51c-4.27,10.19-14.98,20.53-27.54,23.63c-2.62,0.65-10.17,3.16-13.32,3.91
			c0.87,4.41,2.4,9.48,3.38,13.72c3.45,14.87-2.04,30.21-9.7,42.56c-6.95,11.22-17.99,21.18-29.58,24.61
			c-26.86,1.18-39.7,0.78-68.94,0.82c-60.01,0.09-125.66-0.16-189.68-0.8c-8.1-0.08-14.72,6.45-14.75,14.55v0
			c-0.03,8.03,6.43,14.59,14.47,14.67c64.1,0.63,127.4,0.67,188.16,0.7c30.26,0.01,45.85,0.55,73.65-0.95
			c0.63-0.03-0.58-0.05,0.15-0.09c0.72-0.04,0.62-0.07,0.85-0.12c11.04-2.52,19.85-6.57,28.97-13.75
			c8.07-6.36,15.61-14.88,21.37-23.94c6.04-9.49,10.69-20.46,13.25-31.32c1.72-7.33,2.06-13.85,2.05-21.1
			c15.58-8.09,27.4-19.95,34.4-36.4c5-11.73,6.87-24.87,6.06-37.95c-0.55-8.93-2.83-18.5-5.89-26.98
			c7.04-6.57,12.67-12.99,17.42-21.64c6.29-11.44,10.27-24.48,11.6-37.72c1.37-13.55,0.03-27.64-3.95-40.46
			c-2.93-9.44-7.18-17.02-12.74-24.83c3.97-9.17,7.55-18.66,8.02-28.91c0.64-13.87,0.47-28.71-5.51-41.47
			c-11.13-23.75-22.87-39.75-52.95-46.39c-23.75-5.24-62.94-7.72-89.92-8.05c-0.44-0.01-3.24-0.16-3.02,0.07
			c-1.1-0.22-1.78-0.31-2.77-0.34c-19.07-0.75-38.2-0.55-57.27-0.38c6.17-15.34,10.93-34.22,13.78-50.17
			c3.72-20.79,5.01-46.74,4.99-65.22c-0.04-36.24-1.26-75.75-13.75-106.75c-5.16-12.81-9.46-16.84-16.53-24.76
			c-6.63-7.43-14.35-10.51-21.6-13.07c-18.57-6.57-40.35-1.83-55.74,7.22c-11.24,6.61-13.34,14.4-17.12,24.93
			c-4.19,11.65-3.68,17.09-6.6,30.28c-4.28,19.33-2.11,24.49-11.76,49.75c-9.17,23.98-30.59,61.68-47.49,88.4
			c-19.83,31.34-50.65,71.16-74.43,93.56c-16.93,15.95-50.71,34.66-64.86,41.47c-3.8,1.83-6.22,5.66-6.22,9.87v333.45
			c0,16.05-13.01,29.06-29.06,29.06h-184.6c-16.05,0-29.05-13.01-29.05-29.05v-360.1c0-16.05,13.01-29.05,29.05-29.05H774.8
			c8.24,0,15.14-6.75,14.97-14.99c-0.16-7.98-6.7-14.4-14.71-14.38c-47.88,0.1-93.29,0.27-141.31,0.28
			c-10.29,0-14.64,1.62-22.75,4.66c-7.83,2.94-12.94,6.79-18.54,12.39c-5.6,5.6-9.49,10.63-12.46,18.5
			c-3.08,8.16-4.68,12.33-4.71,22.69c-0.3,118.85,0,241.28-0.33,359.34c-0.03,10.29,1.86,15.41,4.82,23.24
			c2.86,7.56,6.88,12.99,12.46,18.52s10.74,9.43,18.56,12.42c8.11,3.1,12.51,4.52,22.78,4.55c60.42,0.16,123.59,0.33,183.92,0.09
			c10.26-0.04,14.74-1.53,22.84-4.59c7.81-2.95,12.89-7.14,18.58-12.47c5.68-5.32,9.26-11.54,12.52-18.41
			c2.37-5,4.2-11.27,4.33-15.56"/>
	</g>
	<g>
		<path class="st0" d="M1095.26,1175.97c-5.67,0-11.37-1.37-16.64-4.14l-97.52-51.27c-0.73-0.39-1.61-0.39-2.34,0l-97.52,51.27
			c-12.11,6.37-26.51,5.33-37.58-2.72c-11.07-8.04-16.51-21.42-14.2-34.9l18.62-108.59c0.14-0.82-0.13-1.65-0.72-2.23l-78.89-76.9
			c-9.8-9.55-13.26-23.57-9.03-36.58c4.23-13.01,15.27-22.32,28.81-24.29l109.03-15.84c0.82-0.12,1.53-0.63,1.89-1.38l48.76-98.8
			c6.06-12.27,18.32-19.89,32-19.89c13.68,0,25.95,7.62,32,19.89v0l48.76,98.8c0.37,0.74,1.07,1.26,1.89,1.38l109.03,15.84
			c13.54,1.97,24.58,11.27,28.81,24.29c4.23,13.01,0.77,27.03-9.03,36.58l-78.89,76.9c-0.59,0.58-0.86,1.41-0.72,2.23l18.62,108.59
			c2.31,13.49-3.13,26.86-14.2,34.9C1109.94,1173.66,1102.62,1175.97,1095.26,1175.97z M979.93,1087.1c5.7,0,11.41,1.37,16.61,4.1
			l97.52,51.27c0.38,0.2,1.38,0.73,2.65-0.19c1.26-0.92,1.07-2.04,1-2.46l-18.62-108.59c-1.99-11.58,1.85-23.39,10.26-31.59
			l78.89-76.9c0.31-0.3,1.12-1.09,0.64-2.58c-0.48-1.49-1.61-1.65-2.03-1.71l-109.03-15.84c-11.63-1.69-21.67-8.99-26.87-19.52
			l-48.76-98.8c-0.19-0.38-0.69-1.4-2.26-1.4c-1.56,0-2.07,1.02-2.26,1.4l-48.76,98.8c-5.2,10.53-15.24,17.83-26.87,19.52
			l-109.03,15.84c-0.42,0.06-1.55,0.22-2.03,1.71c-0.48,1.49,0.33,2.28,0.64,2.58l78.89,76.9c8.41,8.2,12.25,20.01,10.26,31.59
			l-18.62,108.59c-0.07,0.42-0.26,1.54,1,2.46c1.26,0.92,2.27,0.39,2.65,0.19l97.52-51.27
			C968.52,1088.47,974.22,1087.1,979.93,1087.1z"/>
	</g>
	<g>
		<g>
			<g>
				<path class="st0" d="M1363.03,1186.37c-4.29,0-8.6-1.03-12.59-3.13l-62.76-33l-62.76,32.99c-9.16,4.82-20.05,4.03-28.43-2.05
					c-8.37-6.08-12.49-16.2-10.74-26.4l11.99-69.88l-17.71-17.27c-5.74-5.59-5.86-14.78-0.26-20.52c5.6-5.74,14.78-5.86,20.52-0.26
					l18.48,18.01c6.36,6.2,9.26,15.13,7.76,23.89l-11.47,66.87l60.06-31.57c7.87-4.14,17.26-4.13,25.12,0l60.06,31.57l-11.47-66.88
					c-1.5-8.76,1.4-17.69,7.76-23.89l48.59-47.36l-67.15-9.76c-8.79-1.28-16.39-6.8-20.32-14.77l-30.03-60.84l-30.03,60.84
					c-3.55,7.19-12.25,10.14-19.44,6.59c-7.19-3.55-10.14-12.25-6.59-19.44l31.85-64.54c4.58-9.28,13.86-15.05,24.2-15.05
					c0,0,0,0,0,0c10.35,0,19.62,5.77,24.2,15.05l31.38,63.58l70.17,10.2c10.24,1.49,18.59,8.53,21.79,18.37
					c3.2,9.84,0.58,20.45-6.83,27.67l-50.77,49.49l11.99,69.88c1.75,10.2-2.37,20.32-10.74,26.4
					C1374.14,1184.62,1368.6,1186.37,1363.03,1186.37z"/>
			</g>
			<g>
				<path class="st0" d="M1363.03,1186.37c-4.29,0-8.6-1.03-12.59-3.13l-62.76-32.99l-62.76,32.99c-7.09,3.73-15.87,1-19.6-6.09
					c-3.73-7.09-1-15.87,6.09-19.6l63.71-33.49c7.87-4.14,17.26-4.13,25.12,0l60.06,31.57l-11.47-66.88
					c-1.5-8.76,1.4-17.69,7.76-23.89l48.59-47.36l-67.15-9.76c-8.79-1.28-16.39-6.8-20.32-14.77l-31.85-64.54
					c-3.55-7.19-0.6-15.89,6.59-19.44c7.19-3.55,15.89-0.6,19.44,6.59l31.38,63.58l70.17,10.2c10.24,1.49,18.59,8.53,21.79,18.37
					c3.2,9.84,0.58,20.45-6.83,27.67l-50.77,49.49l11.99,69.88c1.75,10.2-2.37,20.32-10.74,26.4
					C1374.14,1184.62,1368.6,1186.37,1363.03,1186.37z M1409.26,1018.09L1409.26,1018.09L1409.26,1018.09z"/>
			</g>
			<g>
				<path class="st0" d="M1244.63,1001.07c-2.16,0-4.35-0.48-6.41-1.5c-7.19-3.55-10.14-12.25-6.59-19.44l31.85-64.54
					c3.55-7.19,12.25-10.14,19.44-6.59c7.19,3.55,10.14,12.25,6.59,19.44l-31.85,64.54
					C1255.13,998.1,1249.98,1001.07,1244.63,1001.07z"/>
			</g>
		</g>
		<g>
			<g>
				<path class="st0" d="M1440.95,1229.52c-4.71,0-9.39-1.48-13.39-4.38c-7.08-5.14-10.56-13.69-9.08-22.32l9.94-57.93l-14.59-14.23
					c-4.92-4.8-5.02-12.67-0.22-17.59c4.79-4.92,12.67-5.02,17.59-0.22l15.37,14.98c5.38,5.24,7.83,12.79,6.56,20.2l-9.41,54.88
					L1493,1177c6.65-3.5,14.59-3.5,21.24,0l49.29,25.91l-9.41-54.88c-1.27-7.4,1.18-14.95,6.56-20.2l39.88-38.87l-55.11-8.01
					c-7.43-1.08-13.86-5.75-17.18-12.48l-24.64-49.93l-24.64,49.93c-3.04,6.16-10.5,8.69-16.66,5.65
					c-6.16-3.04-8.69-10.5-5.65-16.66l26.49-53.68c3.87-7.85,11.71-12.72,20.46-12.72c8.75,0,16.59,4.87,20.46,12.72l26.01,52.71
					l58.17,8.45c8.66,1.26,15.72,7.21,18.42,15.53c2.7,8.32,0.49,17.28-5.77,23.39l-42.09,41.03l9.94,57.93
					c1.48,8.62-2,17.17-9.08,22.32c-7.08,5.14-16.29,5.81-24.03,1.74l-52.03-27.35l-52.03,27.35
					C1448.22,1228.65,1444.58,1229.52,1440.95,1229.52z"/>
			</g>
			<g>
				<path class="st0" d="M1440.95,1229.52c-4.71,0-9.39-1.48-13.39-4.38c-7.08-5.14-10.56-13.69-9.08-22.32l9.94-57.93l-14.59-14.23
					c-4.92-4.8-5.02-12.67-0.22-17.59c4.79-4.92,12.67-5.02,17.59-0.22l15.37,14.98c5.38,5.24,7.83,12.79,6.56,20.2l-9.41,54.88
					L1493,1177c6.65-3.5,14.59-3.5,21.24,0l49.93,26.25c0.71-5.24,4.74-9.64,10.23-10.58c6.77-1.16,13.2,3.39,14.36,10.16
					c1.48,8.62-2,17.17-9.08,22.32c-7.08,5.14-16.29,5.81-24.03,1.74l-52.03-27.35l-52.03,27.35
					C1448.22,1228.65,1444.58,1229.52,1440.95,1229.52z M1564.23,1207.03L1564.23,1207.03L1564.23,1207.03z"/>
			</g>
			<g>
				<path class="st0" d="M1606.49,1089.7c-0.6,0-1.2-0.04-1.8-0.13l-59.24-8.61c-7.43-1.08-13.86-5.75-17.18-12.48l-24.64-49.93
					l-24.64,49.93c-3.04,6.16-10.5,8.69-16.66,5.65c-6.16-3.04-8.69-10.5-5.65-16.66l26.49-53.68c3.87-7.85,11.71-12.72,20.46-12.72
					c8.75,0,16.59,4.87,20.46,12.72l26.01,52.71l58.17,8.45c6.8,0.99,11.51,7.3,10.52,14.1
					C1617.88,1085.23,1612.57,1089.69,1606.49,1089.7z"/>
			</g>
		</g>
	</g>
	<g>
		<g>
			<path class="st0" d="M747.52,1186.37c-4.29,0-8.6-1.03-12.59-3.13l-62.76-32.99l-62.76,32.99c-9.16,4.82-20.05,4.03-28.43-2.05
				c-8.37-6.08-12.49-16.2-10.74-26.4l11.99-69.88l-50.77-49.49c-7.41-7.22-10.03-17.83-6.83-27.67
				c3.2-9.84,11.55-16.88,21.79-18.37l70.17-10.2l31.38-63.58c4.58-9.28,13.85-15.05,24.2-15.05c10.35,0,19.62,5.77,24.2,15.05
				l31.85,64.54c3.55,7.19,0.6,15.89-6.59,19.44c-7.19,3.55-15.89,0.6-19.44-6.59l-30.03-60.85l-30.03,60.85
				c-3.93,7.97-11.53,13.49-20.32,14.77l-67.15,9.76l48.59,47.36c6.36,6.2,9.26,15.13,7.76,23.89l-11.47,66.88l60.06-31.57
				c7.86-4.13,17.26-4.13,25.12,0l60.06,31.57l-11.47-66.88c-1.5-8.76,1.4-17.69,7.76-23.89l18.48-18.01
				c5.74-5.6,14.93-5.48,20.52,0.26s5.48,14.93-0.26,20.52l-17.71,17.27l11.99,69.88c1.75,10.2-2.37,20.32-10.74,26.4
				C758.63,1184.62,753.09,1186.37,747.52,1186.37z"/>
		</g>
		<g>
			<path class="st0" d="M596.83,1186.37c-5.57,0-11.11-1.75-15.84-5.18c-8.37-6.08-12.49-16.2-10.74-26.4l11.99-69.88l-50.77-49.49
				c-7.41-7.22-10.03-17.83-6.83-27.67c3.2-9.84,11.55-16.88,21.79-18.37l70.17-10.2l31.38-63.58c3.55-7.19,12.25-10.14,19.44-6.59
				c7.19,3.55,10.14,12.25,6.59,19.44l-31.85,64.54c-3.93,7.97-11.53,13.49-20.32,14.77l-67.15,9.76l48.59,47.36
				c6.36,6.2,9.26,15.13,7.76,23.89l-11.47,66.88l60.06-31.57c7.86-4.13,17.26-4.13,25.12,0l63.71,33.49
				c7.09,3.73,9.82,12.5,6.09,19.6c-3.73,7.09-12.5,9.82-19.6,6.09l-62.76-32.99l-62.76,32.99
				C605.43,1185.33,601.12,1186.37,596.83,1186.37z"/>
		</g>
		<g>
			<path class="st0" d="M715.23,1001.07c-5.35,0-10.5-2.97-13.03-8.09l-31.85-64.54c-3.55-7.19-0.6-15.89,6.59-19.44
				c7.19-3.55,15.89-0.6,19.44,6.59l31.85,64.54c3.55,7.19,0.6,15.89-6.59,19.44C719.57,1000.59,717.38,1001.07,715.23,1001.07z"/>
		</g>
		<g>
			<g>
				<path class="st0" d="M518.9,1229.52c-3.63,0-7.27-0.87-10.64-2.65l-52.03-27.35l-52.03,27.35c-7.74,4.07-16.95,3.41-24.03-1.74
					c-7.08-5.14-10.56-13.69-9.08-22.32l9.94-57.93l-42.09-41.03c-6.27-6.11-8.48-15.07-5.77-23.39c2.7-8.32,9.76-14.27,18.42-15.53
					l58.17-8.45l26.01-52.71c3.87-7.85,11.71-12.72,20.46-12.72c8.75,0,16.59,4.87,20.46,12.72l26.49,53.68
					c3.04,6.16,0.51,13.62-5.65,16.66c-6.16,3.04-13.62,0.51-16.66-5.65l-24.64-49.93l-24.64,49.93
					c-3.32,6.74-9.75,11.4-17.18,12.48l-55.11,8.01l39.88,38.87c5.38,5.24,7.83,12.79,6.56,20.2l-9.41,54.88l49.29-25.91
					c6.65-3.5,14.59-3.5,21.24,0l49.29,25.91l-9.41-54.88c-1.27-7.4,1.18-14.95,6.56-20.2l15.37-14.98c4.92-4.8,12.8-4.7,17.59,0.22
					c4.8,4.92,4.69,12.8-0.22,17.59l-14.59,14.23l9.94,57.93c1.48,8.62-2,17.17-9.08,22.32
					C528.3,1228.05,523.61,1229.52,518.9,1229.52z"/>
			</g>
			<g>
				<path class="st0" d="M518.9,1229.52c-3.63,0-7.27-0.87-10.64-2.65l-52.03-27.35l-52.03,27.35c-7.74,4.07-16.95,3.41-24.03-1.74
					c-7.08-5.14-10.56-13.69-9.08-22.32c1.16-6.77,7.59-11.32,14.36-10.16c5.49,0.94,9.51,5.34,10.23,10.58l49.93-26.25
					c6.65-3.5,14.59-3.5,21.24,0l49.29,25.91l-9.41-54.88c-1.27-7.4,1.18-14.95,6.56-20.2l15.37-14.98c4.92-4.8,12.8-4.7,17.59,0.22
					c4.8,4.92,4.69,12.8-0.22,17.59l-14.59,14.23l9.94,57.93c1.48,8.62-2,17.17-9.08,22.32
					C528.3,1228.05,523.61,1229.52,518.9,1229.52z"/>
			</g>
			<g>
				<path class="st0" d="M353.37,1089.7c-6.08,0-11.4-4.46-12.29-10.65c-0.99-6.8,3.72-13.11,10.52-14.1l58.17-8.45l26.01-52.71
					c3.87-7.85,11.71-12.72,20.46-12.72c8.75,0,16.59,4.87,20.46,12.72l26.49,53.68c3.04,6.16,0.51,13.62-5.65,16.66
					c-6.16,3.04-13.62,0.51-16.66-5.65l-24.64-49.93l-24.64,49.93c-3.32,6.74-9.75,11.4-17.18,12.48l-59.24,8.61
					C354.57,1089.65,353.96,1089.7,353.37,1089.7z"/>
			</g>
		</g>
	</g>
	<path class="st1" d="M1505.78,2749.04H454.07c-238.92,0-432.6-193.68-432.6-432.6V466.32c0-238.92,193.68-432.6,432.6-432.6
		h1051.71c238.92,0,432.6,193.68,432.6,432.6v1850.12C1938.39,2555.36,1744.7,2749.04,1505.78,2749.04z"/>
</g>
</svg>
