<?xml version="1.0" encoding="utf-8"?>
<!-- Generator: Adobe Illustrator 27.2.0, SVG Export Plug-In . SVG Version: 6.00 Build 0)  -->
<svg version="1.1" id="Ñëîé_1" xmlns="http://www.w3.org/2000/svg" xmlns:xlink="http://www.w3.org/1999/xlink" x="0px" y="0px"
	 viewBox="0 0 1979.64 2774.71" style="enable-background:new 0 0 1979.64 2774.71;" xml:space="preserve">
<style type="text/css">
	.st0{fill:#FFFFFF;}
</style>
<g>
	<g>
		<path class="st0" d="M1264.87,1492.33c-182.07,0-330.2,148.12-330.2,330.19s148.13,330.2,330.2,330.2s330.19-148.13,330.19-330.2
			S1446.95,1492.33,1264.87,1492.33z M1264.87,2123.11c-165.75,0-300.6-134.85-300.6-300.6c0-165.75,134.85-300.58,300.6-300.58
			c165.74,0,300.58,134.84,300.58,300.58C1565.46,1988.27,1430.61,2123.11,1264.87,2123.11z"/>
		<path class="st0" d="M893.05,1972.4h-415.7c-34.83,0-63.17-28.33-63.17-63.17V714.76c0-34.83,28.33-63.17,63.17-63.17h524.07
			v234.49c0,49.09,39.95,89.03,89.04,89.03h244.41v455.98c0,8.18,6.62,14.8,14.8,14.8c8.18,0,14.8-6.62,14.8-14.8V974.92
			c0-13.29-5.51-26.21-15.09-35.4L1036.6,636.05c-9.22-9.06-21.44-14.06-34.38-14.06H477.35c-51.15,0-92.77,41.63-92.77,92.77
			v1194.47c0,51.16,41.62,92.77,92.77,92.77h415.7c8.18,0,14.8-6.62,14.8-14.8C907.85,1979.03,901.23,1972.4,893.05,1972.4z
			 M1312.85,945.51h-222.39c-32.77,0-59.43-26.66-59.43-59.42v-214L1312.85,945.51z"/>
		<path class="st0" d="M1175.74,1132.93H546.46c-8.18,0-14.8,6.63-14.8,14.8c0,8.18,6.62,14.8,14.8,14.8h629.28
			c8.18,0,14.8-6.62,14.8-14.8C1190.54,1139.56,1183.92,1132.93,1175.74,1132.93z"/>
		<path class="st0" d="M1175.74,1259.63H546.46c-8.18,0-14.8,6.63-14.8,14.8c0,8.18,6.62,14.8,14.8,14.8h629.28
			c8.18,0,14.8-6.62,14.8-14.8C1190.54,1266.26,1183.92,1259.63,1175.74,1259.63z"/>
		<path class="st0" d="M1190.54,1405.31c0-8.17-6.62-14.8-14.8-14.8H546.46c-8.18,0-14.8,6.63-14.8,14.8c0,8.18,6.62,14.8,14.8,14.8
			h629.28C1183.92,1420.11,1190.54,1413.49,1190.54,1405.31z"/>
		<path class="st0" d="M546.46,1522.51c-8.18,0-14.8,6.63-14.8,14.8c0,8.18,6.62,14.8,14.8,14.8h322.67c8.18,0,14.8-6.62,14.8-14.8
			c0-8.17-6.62-14.8-14.8-14.8H546.46z"/>
		<path class="st0" d="M1390.64,1730.66c-57.9,54.9-149.91,140.92-177.43,163.83c-13.78-13.7-44.52-48.92-71.35-81.05
			c-5.23-6.25-14.57-7.12-20.85-1.87c-6.27,5.24-7.11,14.56-1.88,20.85c79.65,95.39,85.82,95.39,93.63,95.39
			c7.24,0,12.95,0,198.26-175.68c5.93-5.62,6.17-14.99,0.55-20.93C1405.96,1725.29,1396.61,1725.04,1390.64,1730.66z"/>
	</g>
	<path class="st0" d="M1515.67,2765.02H463.97c-61.09,0-120.37-11.97-176.18-35.58c-53.9-22.8-102.3-55.43-143.86-96.99
		c-41.56-41.56-74.19-89.96-96.99-143.86c-23.61-55.81-35.58-115.09-35.58-176.18V462.3c0-61.09,11.97-120.37,35.58-176.18
		c22.8-53.9,55.43-102.3,96.99-143.86s89.96-74.19,143.86-96.99C343.6,21.66,402.87,9.69,463.97,9.69h1051.71
		c61.09,0,120.37,11.97,176.18,35.58c53.9,22.8,102.3,55.43,143.86,96.99c41.56,41.56,74.19,89.96,96.99,143.86
		c23.61,55.81,35.58,115.09,35.58,176.18v1850.12c0,61.09-11.97,120.37-35.58,176.18c-22.8,53.9-55.43,102.3-96.99,143.86
		c-41.56,41.56-89.96,74.19-143.86,96.99C1636.04,2753.05,1576.77,2765.02,1515.67,2765.02z M463.97,49.69
		c-227.51,0-412.61,185.09-412.61,412.6v1850.12c0,227.51,185.09,412.6,412.61,412.6h1051.71c227.51,0,412.6-185.09,412.6-412.6
		V462.3c0-227.51-185.09-412.6-412.6-412.6H463.97z"/>
</g>
</svg>
