<?xml version="1.0" encoding="utf-8"?>
<!-- Generator: Adobe Illustrator 27.2.0, SVG Export Plug-In . SVG Version: 6.00 Build 0)  -->
<svg version="1.1" id="Ñëîé_1" xmlns="http://www.w3.org/2000/svg" xmlns:xlink="http://www.w3.org/1999/xlink" x="0px" y="0px"
	 viewBox="0 0 1979.64 2774.71" style="enable-background:new 0 0 1979.64 2774.71;" xml:space="preserve">
<style type="text/css">
	.st0{fill:#282F51;}
</style>
<g>
	<path class="st0" d="M1508.09,1560.33c-20.19,0-39.57,6.18-56.03,17.88l-147.01,102.94c-4.09,2.9-6.8,7.24-7.65,12.22
		c-0.85,4.98,0.3,9.99,3.22,14.11c3.54,4.99,9.31,7.97,15.43,7.97c3.93,0,7.71-1.21,10.92-3.49l147.03-102.93
		c10.03-7.12,21.85-10.88,34.17-10.88c19.21,0,37.29,9.32,48.37,24.93c9.15,12.88,12.73,28.57,10.08,44.19
		c-2.65,15.62-11.2,29.25-24.08,38.4l-394.32,278.54c-4.62,3.28-9.64,5.87-14.94,7.7c-6.14,2.12-12.61,3.2-19.23,3.2
		c-1.99,0-3.98-0.1-5.86-0.28l-0.74-0.1l-0.35-0.09l-366.57-93.31c-0.92-0.25-1.62-0.4-2.27-0.5c-4.9-0.75-9.89-1.13-14.84-1.13
		c-20.12,0-39.49,6.21-56.03,17.95l-26.78,19.03L486.6,1719.74l170.41-121.68c20.29-14.4,44.05-22.02,68.73-22.02
		c6.09,0,12.26,0.47,18.27,1.4l0.98,0.22l418.23,121.37l0.45,0.14c30.77,8.87,49.15,40.95,40.97,71.5
		c-4.02,14.95-13.72,27.42-27.32,35.12c-8.93,5.06-19.07,7.74-29.32,7.74c-5.23,0-10.48-0.69-15.6-2.05l-0.09-0.02
		c-0.14-0.03-0.27-0.06-0.43-0.1c-0.1-0.02-0.22-0.06-0.34-0.09l-215.81-52.43c-1.38-0.32-2.81-0.49-4.25-0.49
		c-8.81,0-16.37,6.01-18.38,14.61c-1.23,5.28-0.14,10.84,3,15.26c2.67,3.76,6.61,6.4,11.08,7.45l215.72,52.41
		c0.14,0.03,0.28,0.06,0.43,0.1c8.13,2.11,16.47,3.18,24.79,3.18c16.68,0,33.22-4.38,47.84-12.65
		c22.49-12.74,38.55-33.42,45.2-58.23c13.51-50.36-16.62-103.15-67.18-117.67L755.75,1541.4l-0.21-0.08
		c-1.15-0.42-2.23-0.71-3.3-0.89c-8.78-1.49-17.72-2.25-26.57-2.25c-32.49,0-63.81,10.05-90.59,29.07L464.71,1688.9l-19.5-27.47
		c-3.54-4.98-9.31-7.96-15.43-7.96c-3.93,0-7.71,1.21-10.92,3.49l-69.95,49.5c-0.11,0.08-0.21,0.15-0.33,0.23l-0.48,0.34
		c-4.79,3.53-7.65,9.23-7.65,15.25c0,10.49,8.54,19.03,19.03,19.03c4.35,0,8.45-1.43,11.81-4.12l0.31-0.23l53.74-38.22
		l215.27,303.15l-49.72,35.41c-1.22,0.69-2.36,1.51-3.4,2.44c-4.01,3.61-6.3,8.76-6.3,14.15c0,10.49,8.54,19.03,19.03,19.03
		c4.03,0,7.88-1.25,11.13-3.6l66.56-47.52c8.51-6.04,10.52-17.88,4.49-26.38l-19.87-27.96l26.79-19.04
		c10.05-7.14,21.86-10.92,34.14-10.92c2.65,0,5.32,0.18,7.96,0.53l0.88,0.17l367.36,93.51l0.3,0.07c0.2,0.04,0.44,0.08,0.64,0.11
		l0.54,0.11c0.17,0.04,0.31,0.07,0.45,0.09l0.59,0.09c3.87,0.47,7.83,0.72,11.76,0.72c10.89,0,21.56-1.78,31.71-5.3
		c8.7-3.01,16.94-7.25,24.49-12.61l394.32-278.55c21.09-14.97,35.09-37.31,39.42-62.89c4.34-25.59-1.52-51.3-16.51-72.4
		C1569.21,1575.59,1539.57,1560.33,1508.09,1560.33z"/>
	<path class="st0" d="M1111.97,1225.48c-0.19-10.94-9.21-19.66-20.15-19.47c-10.94,0.19-19.66,9.21-19.47,20.15
		c0.22,13.11,3.46,25.75,9.62,37.56c5.81,11.15,13.96,21.04,24.21,29.42c13.83,11.3,30.55,19.03,48.63,22.7l0.39,22.68
		c0.19,10.94,9.21,19.66,20.15,19.47c10.94-0.19,19.66-9.21,19.47-20.15l-0.35-20.49c23.12-2.85,44.5-12.13,61.21-26.77
		c9.96-8.72,17.76-18.9,23.19-30.24c5.75-12.02,8.55-24.76,8.33-37.87c-0.54-31.6-18.98-60.57-49.33-77.49
		c-3.36-1.87-18.86-9.97-43.4-14.84v-90.5c9.3,2.21,17.79,6.3,24.82,12.04c10.39,8.49,16.22,19.63,16.42,31.37
		c0.19,10.94,9.21,19.66,20.15,19.47c10.94-0.19,19.66-9.21,19.47-20.15c-0.4-23.59-11.4-45.38-30.97-61.37
		c-13.7-11.2-30.51-18.55-48.63-21.48l-0.37-21.55c-0.19-10.94-9.21-19.66-20.15-19.47c-10.94,0.19-19.66,9.21-19.47,20.15
		l0.37,21.55c-18.01,3.54-34.55,11.47-47.87,23.13c-19,16.65-29.25,38.81-28.84,62.4c0.39,23.02,10.95,44.45,29.73,60.34
		c0.05,0.04,0.1,0.08,0.15,0.12c13.36,11.09,30.26,15.91,46.83,18.57v110.62C1130.69,1267.92,1112.37,1248.51,1111.97,1225.48z
		 M1194.48,1170.75c14.93,3.8,23.6,8.56,24.1,8.84c17.87,9.96,28.71,26.25,29.01,43.57c0.45,26.17-22.4,48.48-53.11,54.13V1170.75z
		 M1134.66,1115.75c-9.88-8.4-15.43-19.3-15.63-30.71c-0.2-11.74,5.24-23.07,15.34-31.91c6.17-5.41,13.58-9.5,21.76-12.11v83.43
		C1147.41,1122.62,1139.78,1119.96,1134.66,1115.75z"/>
	<path class="st0" d="M806.16,1454.13c3.51,5.56,9.62,8.93,16.19,8.93c6.57,0,12.69-3.37,16.19-8.93l180.21-285.68
		c3.72-5.9,3.94-13.35,0.57-19.46c-3.37-6.11-9.79-9.9-16.76-9.9h-90.55c2.06-29.48,8.91-58.11,20.43-85.35
		c13.52-31.97,32.88-60.68,57.53-85.33c24.65-24.65,53.36-44.01,85.33-57.53c33.09-14,68.25-21.1,104.49-21.1
		c36.24,0,71.4,7.1,104.49,21.1c31.96,13.52,60.67,32.88,85.33,57.53c24.65,24.65,44.01,53.36,57.53,85.33
		c14,33.09,21.1,68.25,21.1,104.49c0,36.24-7.1,71.4-21.1,104.49c-13.52,31.97-32.88,60.68-57.53,85.33
		c-24.65,24.65-53.36,44.01-85.33,57.53c-33.09,14-68.25,21.1-104.49,21.1c-36.24,0-71.4-7.1-104.49-21.1
		c-31.97-13.52-60.68-32.88-85.33-57.53c-7.48-7.48-19.6-7.48-27.08,0c-7.48,7.48-7.48,19.6,0,27.08
		c28.16,28.16,60.96,50.27,97.49,65.72c37.84,16,78.01,24.12,119.41,24.12c41.4,0,81.57-8.12,119.41-24.12
		c36.53-15.45,69.33-37.57,97.49-65.72c28.16-28.16,50.27-60.96,65.72-97.49c16.01-37.84,24.12-78.01,24.12-119.41
		c0-41.4-8.12-81.57-24.12-119.41c-15.45-36.53-37.56-69.33-65.72-97.49c-28.16-28.16-60.96-50.27-97.49-65.72
		c-37.84-16.01-78.01-24.12-119.41-24.12c-41.4,0-81.57,8.12-119.41,24.12c-36.53,15.45-69.33,37.56-97.49,65.72
		c-28.16,28.16-50.27,60.96-65.72,97.49c-13.53,31.98-21.42,65.62-23.54,100.26h-51.28c-10.57,0-19.14,8.57-19.14,19.15
		c0,10.57,8.57,19.15,19.14,19.15h69.8c0.01,0,0.03,0,0.04,0s0.03,0,0.04,0h75.62l-145.49,230.65l-145.49-230.65h60.66
		c10.57,0,19.15-8.57,19.15-19.15c0-233.31,189.81-423.12,423.12-423.12c233.31,0,423.12,189.81,423.12,423.12
		c0,10.57,8.57,19.15,19.15,19.15c10.57,0,19.14-8.57,19.14-19.15c0-62.28-12.2-122.71-36.27-179.61
		c-23.24-54.95-56.51-104.29-98.88-146.66c-42.37-42.37-91.71-75.64-146.66-98.88c-56.9-24.07-117.32-36.27-179.61-36.27
		c-62.28,0-122.71,12.2-179.61,36.27c-54.95,23.24-104.29,56.51-146.66,98.88c-42.37,42.37-75.63,91.71-98.88,146.66
		c-21.59,51.05-33.63,104.94-35.88,160.46h-76.62c-6.97,0-13.4,3.79-16.76,9.9c-3.37,6.11-3.15,13.56,0.57,19.46L806.16,1454.13z"/>
	<path class="st0" d="M1516.67,2762.55H464.97c-61.09,0-120.37-11.97-176.18-35.58c-53.9-22.8-102.3-55.43-143.86-96.99
		c-41.56-41.56-74.19-89.96-96.99-143.86c-23.61-55.81-35.58-115.09-35.58-176.18V459.82c0-61.09,11.97-120.37,35.58-176.18
		c22.8-53.9,55.43-102.3,96.99-143.86s89.96-74.19,143.86-96.99C344.6,19.19,403.87,7.22,464.97,7.22h1051.71
		c61.09,0,120.37,11.97,176.18,35.58c53.9,22.8,102.3,55.43,143.86,96.99c41.56,41.56,74.19,89.96,96.99,143.86
		c23.61,55.81,35.58,115.09,35.58,176.18v1850.12c0,61.09-11.97,120.37-35.58,176.18c-22.8,53.9-55.43,102.3-96.99,143.86
		c-41.56,41.56-89.96,74.19-143.86,96.99C1637.04,2750.58,1577.77,2762.55,1516.67,2762.55z M464.97,47.22
		c-227.51,0-412.61,185.09-412.61,412.6v1850.12c0,227.51,185.09,412.6,412.61,412.6h1051.71c227.51,0,412.6-185.09,412.6-412.6
		V459.82c0-227.51-185.09-412.6-412.6-412.6H464.97z"/>
</g>
</svg>
