<?xml version="1.0" encoding="utf-8"?>
<!-- Generator: Adobe Illustrator 27.2.0, SVG Export Plug-In . SVG Version: 6.00 Build 0)  -->
<svg version="1.1" id="Ñëîé_1" xmlns="http://www.w3.org/2000/svg" xmlns:xlink="http://www.w3.org/1999/xlink" x="0px" y="0px"
	 viewBox="0 0 1979.64 2774.71" style="enable-background:new 0 0 1979.64 2774.71;" xml:space="preserve">
<style type="text/css">
	.st0{fill:#FFFFFF;}
</style>
<g>
	<path class="st0" d="M1540.42,1553.65c-16.72,0-30.27,13.55-30.27,30.27v284.45c0,56.23-45.75,101.98-101.98,101.98H505.54
		c-56.23,0-101.98-45.75-101.98-101.98v-839.91c0-56.23,45.75-101.98,101.98-101.98h284.28c16.72,0,30.27-13.55,30.27-30.27
		s-13.55-30.27-30.27-30.27H505.54c-89.61,0-162.52,72.91-162.52,162.52v839.91c0,89.61,72.91,162.52,162.52,162.52h902.63
		c89.61,0,162.52-72.91,162.52-162.52v-284.45C1570.69,1567.2,1557.14,1553.65,1540.42,1553.65z"/>
	<path class="st0" d="M1596.06,828.12l-43.74-43.74c-54.07-54.07-142.06-54.07-196.13,0l-574.33,574.33
		c-0.75,0.75-1.46,1.54-2.12,2.35c-0.01,0.01-0.02,0.03-0.03,0.04c-0.75,0.93-1.42,1.9-2.05,2.89c-0.15,0.23-0.28,0.47-0.42,0.71
		c-0.5,0.84-0.95,1.69-1.36,2.56c-0.11,0.24-0.23,0.48-0.34,0.73c-0.52,1.19-0.98,2.4-1.34,3.64l-84.14,279.46
		c-3.2,10.64-0.32,22.18,7.51,30.06c5.76,5.8,13.53,8.94,21.48,8.94c2.85,0,5.72-0.4,8.53-1.23l281.27-82.64
		c0.04-0.01,0.07-0.03,0.11-0.04c1.13-0.34,2.24-0.75,3.33-1.22c0.31-0.13,0.6-0.28,0.9-0.43c0.78-0.37,1.55-0.77,2.3-1.2
		c0.33-0.19,0.66-0.38,0.98-0.58c0.79-0.5,1.55-1.03,2.29-1.61c0.19-0.15,0.4-0.28,0.59-0.44c0.82-0.66,1.62-1.37,2.37-2.12
		l574.33-574.33C1650.13,970.18,1650.13,882.19,1596.06,828.12z M1316.26,909.94l154.25,154.25l-470.18,470.18l-77.12-77.13
		l-77.12-77.13L1316.26,909.94z M764.16,1615.01l53.5-177.7l62.36,62.36l62.84,62.84L764.16,1615.01z M1553.25,981.44l-39.94,39.94
		l-154.25-154.25l39.94-39.94c14.76-14.76,34.38-22.89,55.26-22.89s40.5,8.13,55.26,22.89l43.74,43.74
		C1583.72,901.4,1583.72,950.97,1553.25,981.44z"/>
	<path class="st0" d="M1515.67,2765.02H463.97c-61.09,0-120.37-11.97-176.18-35.58c-53.9-22.8-102.3-55.43-143.86-96.99
		c-41.56-41.56-74.19-89.96-96.99-143.86c-23.61-55.81-35.58-115.09-35.58-176.18V462.3c0-61.09,11.97-120.37,35.58-176.18
		c22.8-53.9,55.43-102.3,96.99-143.86s89.96-74.19,143.86-96.99C343.6,21.66,402.87,9.69,463.97,9.69h1051.71
		c61.09,0,120.37,11.97,176.18,35.58c53.9,22.8,102.3,55.43,143.86,96.99c41.56,41.56,74.19,89.96,96.99,143.86
		c23.61,55.81,35.58,115.09,35.58,176.18v1850.12c0,61.09-11.97,120.37-35.58,176.18c-22.8,53.9-55.43,102.3-96.99,143.86
		c-41.56,41.56-89.96,74.19-143.86,96.99C1636.04,2753.05,1576.77,2765.02,1515.67,2765.02z M463.97,49.69
		c-227.51,0-412.61,185.09-412.61,412.6v1850.12c0,227.51,185.09,412.6,412.61,412.6h1051.71c227.51,0,412.6-185.09,412.6-412.6
		V462.3c0-227.51-185.09-412.6-412.6-412.6H463.97z"/>
</g>
</svg>
